<mxfile host="app.diagrams.net" agent="Mozilla/5.0 (Windows NT 10.0; Win64; x64) AppleWebKit/537.36 (KHTML, like Gecko) Chrome/135.0.0.0 Safari/537.36 Edg/135.0.0.0" version="26.2.14">
  <diagram name="Page-1" id="2xfqD6G6PX9wo0LNrm-w">
    <mxGraphModel dx="1683" dy="1154" grid="1" gridSize="10" guides="1" tooltips="1" connect="1" arrows="1" fold="1" page="1" pageScale="1" pageWidth="1200" pageHeight="2400" math="0" shadow="0">
      <root>
        <mxCell id="0" />
        <mxCell id="1" parent="0" />
        <mxCell id="4vGkz7nxXuu8QmF7Kftd-1" value="" style="edgeStyle=orthogonalEdgeStyle;rounded=0;orthogonalLoop=1;jettySize=auto;html=1;" parent="1" source="4vGkz7nxXuu8QmF7Kftd-2" target="4vGkz7nxXuu8QmF7Kftd-91" edge="1">
          <mxGeometry relative="1" as="geometry" />
        </mxCell>
        <mxCell id="4vGkz7nxXuu8QmF7Kftd-2" value="Player spawns in Level 1" style="rounded=1;whiteSpace=wrap;html=1;" parent="1" vertex="1">
          <mxGeometry x="790.64" y="1190" width="160" height="60" as="geometry" />
        </mxCell>
        <mxCell id="4vGkz7nxXuu8QmF7Kftd-3" value="Input manager" style="swimlane;fontStyle=0;childLayout=stackLayout;horizontal=1;startSize=26;horizontalStack=0;resizeParent=1;resizeParentMax=0;resizeLast=0;collapsible=1;marginBottom=0;align=center;fontSize=14;" parent="1" vertex="1">
          <mxGeometry x="990.64" y="1290" width="180" height="296" as="geometry">
            <mxRectangle x="790" y="520" width="130" height="30" as="alternateBounds" />
          </mxGeometry>
        </mxCell>
        <mxCell id="4vGkz7nxXuu8QmF7Kftd-4" value="Space =&amp;gt; Jump" style="text;strokeColor=none;fillColor=none;spacingLeft=4;spacingRight=4;overflow=hidden;rotatable=0;points=[[0,0.5],[1,0.5]];portConstraint=eastwest;fontSize=12;whiteSpace=wrap;html=1;" parent="4vGkz7nxXuu8QmF7Kftd-3" vertex="1">
          <mxGeometry y="26" width="180" height="30" as="geometry" />
        </mxCell>
        <mxCell id="4vGkz7nxXuu8QmF7Kftd-5" value="Ctrl =&amp;gt; Crouch/Slide" style="text;strokeColor=none;fillColor=none;spacingLeft=4;spacingRight=4;overflow=hidden;rotatable=0;points=[[0,0.5],[1,0.5]];portConstraint=eastwest;fontSize=12;whiteSpace=wrap;html=1;" parent="4vGkz7nxXuu8QmF7Kftd-3" vertex="1">
          <mxGeometry y="56" width="180" height="30" as="geometry" />
        </mxCell>
        <mxCell id="4vGkz7nxXuu8QmF7Kftd-6" value="Left mouse =&amp;gt; Shoot" style="text;strokeColor=none;fillColor=none;spacingLeft=4;spacingRight=4;overflow=hidden;rotatable=0;points=[[0,0.5],[1,0.5]];portConstraint=eastwest;fontSize=12;whiteSpace=wrap;html=1;" parent="4vGkz7nxXuu8QmF7Kftd-3" vertex="1">
          <mxGeometry y="86" width="180" height="30" as="geometry" />
        </mxCell>
        <mxCell id="4vGkz7nxXuu8QmF7Kftd-7" value="Right mouse =&amp;gt; Ability" style="text;strokeColor=none;fillColor=none;spacingLeft=4;spacingRight=4;overflow=hidden;rotatable=0;points=[[0,0.5],[1,0.5]];portConstraint=eastwest;fontSize=12;whiteSpace=wrap;html=1;" parent="4vGkz7nxXuu8QmF7Kftd-3" vertex="1">
          <mxGeometry y="116" width="180" height="30" as="geometry" />
        </mxCell>
        <mxCell id="4vGkz7nxXuu8QmF7Kftd-8" value="G =&amp;gt; Gadgets" style="text;strokeColor=none;fillColor=none;spacingLeft=4;spacingRight=4;overflow=hidden;rotatable=0;points=[[0,0.5],[1,0.5]];portConstraint=eastwest;fontSize=12;whiteSpace=wrap;html=1;" parent="4vGkz7nxXuu8QmF7Kftd-3" vertex="1">
          <mxGeometry y="146" width="180" height="30" as="geometry" />
        </mxCell>
        <mxCell id="4vGkz7nxXuu8QmF7Kftd-9" value="WASD =&amp;gt; Movement" style="text;strokeColor=none;fillColor=none;spacingLeft=4;spacingRight=4;overflow=hidden;rotatable=0;points=[[0,0.5],[1,0.5]];portConstraint=eastwest;fontSize=12;whiteSpace=wrap;html=1;" parent="4vGkz7nxXuu8QmF7Kftd-3" vertex="1">
          <mxGeometry y="176" width="180" height="30" as="geometry" />
        </mxCell>
        <mxCell id="4vGkz7nxXuu8QmF7Kftd-10" value="E =&amp;gt; Interact" style="text;strokeColor=none;fillColor=none;spacingLeft=4;spacingRight=4;overflow=hidden;rotatable=0;points=[[0,0.5],[1,0.5]];portConstraint=eastwest;fontSize=12;whiteSpace=wrap;html=1;" parent="4vGkz7nxXuu8QmF7Kftd-3" vertex="1">
          <mxGeometry y="206" width="180" height="30" as="geometry" />
        </mxCell>
        <mxCell id="4vGkz7nxXuu8QmF7Kftd-11" value="R =&amp;gt; reload" style="text;strokeColor=none;fillColor=none;spacingLeft=4;spacingRight=4;overflow=hidden;rotatable=0;points=[[0,0.5],[1,0.5]];portConstraint=eastwest;fontSize=12;whiteSpace=wrap;html=1;" parent="4vGkz7nxXuu8QmF7Kftd-3" vertex="1">
          <mxGeometry y="236" width="180" height="30" as="geometry" />
        </mxCell>
        <mxCell id="4vGkz7nxXuu8QmF7Kftd-12" value="ESC =&amp;gt; pause" style="text;strokeColor=none;fillColor=none;spacingLeft=4;spacingRight=4;overflow=hidden;rotatable=0;points=[[0,0.5],[1,0.5]];portConstraint=eastwest;fontSize=12;whiteSpace=wrap;html=1;" parent="4vGkz7nxXuu8QmF7Kftd-3" vertex="1">
          <mxGeometry y="266" width="180" height="30" as="geometry" />
        </mxCell>
        <mxCell id="4vGkz7nxXuu8QmF7Kftd-13" value="" style="edgeStyle=orthogonalEdgeStyle;rounded=0;orthogonalLoop=1;jettySize=auto;html=1;" parent="1" source="4vGkz7nxXuu8QmF7Kftd-15" target="4vGkz7nxXuu8QmF7Kftd-75" edge="1">
          <mxGeometry relative="1" as="geometry" />
        </mxCell>
        <mxCell id="4vGkz7nxXuu8QmF7Kftd-14" value="True" style="edgeLabel;html=1;align=center;verticalAlign=middle;resizable=0;points=[];" parent="4vGkz7nxXuu8QmF7Kftd-13" vertex="1" connectable="0">
          <mxGeometry x="-0.5111" y="-1" relative="1" as="geometry">
            <mxPoint as="offset" />
          </mxGeometry>
        </mxCell>
        <mxCell id="4vGkz7nxXuu8QmF7Kftd-15" value="Did the player Shoot?" style="rhombus;whiteSpace=wrap;html=1;rounded=1;" parent="1" vertex="1">
          <mxGeometry x="800.64" y="1760" width="140" height="120" as="geometry" />
        </mxCell>
        <mxCell id="4vGkz7nxXuu8QmF7Kftd-16" value="Apply Physics (gravity)" style="rounded=0;whiteSpace=wrap;html=1;" parent="1" vertex="1">
          <mxGeometry x="170" y="1920" width="120" height="60" as="geometry" />
        </mxCell>
        <mxCell id="4vGkz7nxXuu8QmF7Kftd-17" value="" style="edgeStyle=orthogonalEdgeStyle;rounded=0;orthogonalLoop=1;jettySize=auto;html=1;" parent="1" source="4vGkz7nxXuu8QmF7Kftd-30" target="4vGkz7nxXuu8QmF7Kftd-15" edge="1">
          <mxGeometry relative="1" as="geometry" />
        </mxCell>
        <mxCell id="4vGkz7nxXuu8QmF7Kftd-18" value="" style="edgeStyle=orthogonalEdgeStyle;rounded=0;orthogonalLoop=1;jettySize=auto;html=1;" parent="1" source="4vGkz7nxXuu8QmF7Kftd-30" target="4vGkz7nxXuu8QmF7Kftd-15" edge="1">
          <mxGeometry relative="1" as="geometry" />
        </mxCell>
        <mxCell id="4vGkz7nxXuu8QmF7Kftd-19" style="edgeStyle=orthogonalEdgeStyle;rounded=0;orthogonalLoop=1;jettySize=auto;html=1;entryX=0.5;entryY=0;entryDx=0;entryDy=0;" parent="1" source="4vGkz7nxXuu8QmF7Kftd-30" target="4vGkz7nxXuu8QmF7Kftd-42" edge="1">
          <mxGeometry relative="1" as="geometry">
            <Array as="points">
              <mxPoint x="870.64" y="1710" />
              <mxPoint x="710.64" y="1710" />
            </Array>
          </mxGeometry>
        </mxCell>
        <mxCell id="4vGkz7nxXuu8QmF7Kftd-20" style="edgeStyle=orthogonalEdgeStyle;rounded=0;orthogonalLoop=1;jettySize=auto;html=1;" parent="1" source="4vGkz7nxXuu8QmF7Kftd-30" target="4vGkz7nxXuu8QmF7Kftd-59" edge="1">
          <mxGeometry relative="1" as="geometry" />
        </mxCell>
        <mxCell id="4vGkz7nxXuu8QmF7Kftd-21" style="edgeStyle=orthogonalEdgeStyle;rounded=0;orthogonalLoop=1;jettySize=auto;html=1;" parent="1" source="4vGkz7nxXuu8QmF7Kftd-30" target="4vGkz7nxXuu8QmF7Kftd-67" edge="1">
          <mxGeometry relative="1" as="geometry">
            <Array as="points">
              <mxPoint x="870.64" y="1710" />
              <mxPoint x="1030.6399999999999" y="1710" />
            </Array>
          </mxGeometry>
        </mxCell>
        <mxCell id="4vGkz7nxXuu8QmF7Kftd-22" style="edgeStyle=orthogonalEdgeStyle;rounded=0;orthogonalLoop=1;jettySize=auto;html=1;" parent="1" source="4vGkz7nxXuu8QmF7Kftd-30" target="4vGkz7nxXuu8QmF7Kftd-78" edge="1">
          <mxGeometry relative="1" as="geometry" />
        </mxCell>
        <mxCell id="4vGkz7nxXuu8QmF7Kftd-23" style="edgeStyle=orthogonalEdgeStyle;rounded=0;orthogonalLoop=1;jettySize=auto;html=1;" parent="1" source="4vGkz7nxXuu8QmF7Kftd-30" target="4vGkz7nxXuu8QmF7Kftd-89" edge="1">
          <mxGeometry relative="1" as="geometry" />
        </mxCell>
        <mxCell id="4vGkz7nxXuu8QmF7Kftd-24" style="edgeStyle=orthogonalEdgeStyle;rounded=0;orthogonalLoop=1;jettySize=auto;html=1;entryX=0.5;entryY=0;entryDx=0;entryDy=0;" parent="1" source="4vGkz7nxXuu8QmF7Kftd-30" target="4vGkz7nxXuu8QmF7Kftd-111" edge="1">
          <mxGeometry relative="1" as="geometry" />
        </mxCell>
        <mxCell id="4vGkz7nxXuu8QmF7Kftd-25" style="edgeStyle=orthogonalEdgeStyle;rounded=0;orthogonalLoop=1;jettySize=auto;html=1;entryX=0.5;entryY=0;entryDx=0;entryDy=0;" parent="1" source="4vGkz7nxXuu8QmF7Kftd-30" target="4vGkz7nxXuu8QmF7Kftd-97" edge="1">
          <mxGeometry relative="1" as="geometry" />
        </mxCell>
        <mxCell id="4vGkz7nxXuu8QmF7Kftd-26" style="edgeStyle=orthogonalEdgeStyle;rounded=0;orthogonalLoop=1;jettySize=auto;html=1;entryX=0.5;entryY=0;entryDx=0;entryDy=0;" parent="1" source="4vGkz7nxXuu8QmF7Kftd-30" target="4vGkz7nxXuu8QmF7Kftd-174" edge="1">
          <mxGeometry relative="1" as="geometry" />
        </mxCell>
        <mxCell id="4vGkz7nxXuu8QmF7Kftd-27" style="edgeStyle=orthogonalEdgeStyle;rounded=0;orthogonalLoop=1;jettySize=auto;html=1;entryX=0.5;entryY=0;entryDx=0;entryDy=0;" parent="1" source="4vGkz7nxXuu8QmF7Kftd-30" target="4vGkz7nxXuu8QmF7Kftd-177" edge="1">
          <mxGeometry relative="1" as="geometry" />
        </mxCell>
        <mxCell id="4vGkz7nxXuu8QmF7Kftd-28" style="edgeStyle=orthogonalEdgeStyle;rounded=0;orthogonalLoop=1;jettySize=auto;html=1;entryX=0.5;entryY=0;entryDx=0;entryDy=0;" parent="1" source="4vGkz7nxXuu8QmF7Kftd-30" target="4vGkz7nxXuu8QmF7Kftd-190" edge="1">
          <mxGeometry relative="1" as="geometry" />
        </mxCell>
        <mxCell id="4vGkz7nxXuu8QmF7Kftd-29" style="edgeStyle=orthogonalEdgeStyle;rounded=0;orthogonalLoop=1;jettySize=auto;html=1;entryX=0.5;entryY=0;entryDx=0;entryDy=0;" parent="1" source="4vGkz7nxXuu8QmF7Kftd-30" target="4vGkz7nxXuu8QmF7Kftd-206" edge="1">
          <mxGeometry relative="1" as="geometry" />
        </mxCell>
        <mxCell id="NjJisONS0e7iSbClvMFq-59" style="edgeStyle=orthogonalEdgeStyle;rounded=0;orthogonalLoop=1;jettySize=auto;html=1;entryX=0.5;entryY=0;entryDx=0;entryDy=0;" parent="1" source="4vGkz7nxXuu8QmF7Kftd-30" target="NjJisONS0e7iSbClvMFq-56" edge="1">
          <mxGeometry relative="1" as="geometry" />
        </mxCell>
        <mxCell id="AHHrEbp7xVRI3c2H2Wv2-3" style="edgeStyle=none;curved=1;rounded=0;orthogonalLoop=1;jettySize=auto;html=1;entryX=0.5;entryY=1;entryDx=0;entryDy=0;fontSize=12;startSize=8;endSize=8;" edge="1" parent="1" source="4vGkz7nxXuu8QmF7Kftd-30" target="AHHrEbp7xVRI3c2H2Wv2-1">
          <mxGeometry relative="1" as="geometry">
            <Array as="points">
              <mxPoint x="1350" y="1630" />
            </Array>
          </mxGeometry>
        </mxCell>
        <mxCell id="4vGkz7nxXuu8QmF7Kftd-30" value="On update&amp;nbsp;&lt;div&gt;(Treat like it returns to this point when ends)&lt;/div&gt;" style="rounded=0;whiteSpace=wrap;html=1;" parent="1" vertex="1">
          <mxGeometry x="795.64" y="1630" width="150" height="60" as="geometry" />
        </mxCell>
        <mxCell id="4vGkz7nxXuu8QmF7Kftd-31" value="" style="edgeStyle=orthogonalEdgeStyle;rounded=0;orthogonalLoop=1;jettySize=auto;html=1;" parent="1" source="4vGkz7nxXuu8QmF7Kftd-32" target="4vGkz7nxXuu8QmF7Kftd-86" edge="1">
          <mxGeometry relative="1" as="geometry" />
        </mxCell>
        <mxCell id="4vGkz7nxXuu8QmF7Kftd-32" value="Cast a ray in front of player" style="rounded=0;whiteSpace=wrap;html=1;" parent="1" vertex="1">
          <mxGeometry x="810.64" y="2145" width="120" height="60" as="geometry" />
        </mxCell>
        <mxCell id="4vGkz7nxXuu8QmF7Kftd-33" value="True" style="edgeStyle=orthogonalEdgeStyle;rounded=0;orthogonalLoop=1;jettySize=auto;html=1;" parent="1" source="4vGkz7nxXuu8QmF7Kftd-34" target="4vGkz7nxXuu8QmF7Kftd-36" edge="1">
          <mxGeometry relative="1" as="geometry" />
        </mxCell>
        <mxCell id="4vGkz7nxXuu8QmF7Kftd-34" value="If hit enemy" style="rhombus;whiteSpace=wrap;html=1;rounded=1;" parent="1" vertex="1">
          <mxGeometry x="805.64" y="2340" width="130" height="120" as="geometry" />
        </mxCell>
        <mxCell id="4vGkz7nxXuu8QmF7Kftd-35" value="" style="edgeStyle=orthogonalEdgeStyle;rounded=0;orthogonalLoop=1;jettySize=auto;html=1;" parent="1" source="4vGkz7nxXuu8QmF7Kftd-36" target="4vGkz7nxXuu8QmF7Kftd-45" edge="1">
          <mxGeometry relative="1" as="geometry" />
        </mxCell>
        <mxCell id="4vGkz7nxXuu8QmF7Kftd-36" value="Decrease Enemy Hp by the weapon dmg" style="whiteSpace=wrap;html=1;rounded=0;" parent="1" vertex="1">
          <mxGeometry x="810.64" y="2500" width="120" height="60" as="geometry" />
        </mxCell>
        <mxCell id="4vGkz7nxXuu8QmF7Kftd-37" value="True" style="edgeStyle=orthogonalEdgeStyle;rounded=0;orthogonalLoop=1;jettySize=auto;html=1;" parent="1" source="4vGkz7nxXuu8QmF7Kftd-38" target="4vGkz7nxXuu8QmF7Kftd-40" edge="1">
          <mxGeometry relative="1" as="geometry" />
        </mxCell>
        <mxCell id="4vGkz7nxXuu8QmF7Kftd-38" value="Is the player near the enemy?" style="rhombus;whiteSpace=wrap;html=1;rounded=1;spacing=10;" parent="1" vertex="1">
          <mxGeometry x="485.64" y="2180" width="130" height="100" as="geometry" />
        </mxCell>
        <mxCell id="4vGkz7nxXuu8QmF7Kftd-39" value="" style="edgeStyle=orthogonalEdgeStyle;rounded=0;orthogonalLoop=1;jettySize=auto;html=1;" parent="1" source="4vGkz7nxXuu8QmF7Kftd-40" target="4vGkz7nxXuu8QmF7Kftd-50" edge="1">
          <mxGeometry relative="1" as="geometry" />
        </mxCell>
        <mxCell id="4vGkz7nxXuu8QmF7Kftd-40" value="Decrease player hp by enemy dmg" style="rounded=0;whiteSpace=wrap;html=1;" parent="1" vertex="1">
          <mxGeometry x="490.64" y="2340" width="120" height="60" as="geometry" />
        </mxCell>
        <mxCell id="4vGkz7nxXuu8QmF7Kftd-41" value="True" style="edgeStyle=orthogonalEdgeStyle;rounded=0;orthogonalLoop=1;jettySize=auto;html=1;" parent="1" source="4vGkz7nxXuu8QmF7Kftd-42" target="4vGkz7nxXuu8QmF7Kftd-43" edge="1">
          <mxGeometry relative="1" as="geometry" />
        </mxCell>
        <mxCell id="4vGkz7nxXuu8QmF7Kftd-42" value="Did the player enter the Exit?" style="rhombus;whiteSpace=wrap;html=1;rounded=1;spacingLeft=10;spacingRight=10;" parent="1" vertex="1">
          <mxGeometry x="640.64" y="1760" width="140" height="120" as="geometry" />
        </mxCell>
        <mxCell id="4vGkz7nxXuu8QmF7Kftd-43" value="Exit level and proceed to next." style="whiteSpace=wrap;html=1;rounded=1;spacingLeft=10;spacingRight=10;" parent="1" vertex="1">
          <mxGeometry x="650.64" y="1920" width="120" height="60" as="geometry" />
        </mxCell>
        <mxCell id="4vGkz7nxXuu8QmF7Kftd-44" value="True" style="edgeStyle=orthogonalEdgeStyle;rounded=0;orthogonalLoop=1;jettySize=auto;html=1;" parent="1" source="4vGkz7nxXuu8QmF7Kftd-45" target="4vGkz7nxXuu8QmF7Kftd-47" edge="1">
          <mxGeometry relative="1" as="geometry" />
        </mxCell>
        <mxCell id="4vGkz7nxXuu8QmF7Kftd-45" value="Did an enemy die?" style="rhombus;whiteSpace=wrap;html=1;rounded=1;" parent="1" vertex="1">
          <mxGeometry x="800.64" y="2600" width="140" height="120" as="geometry" />
        </mxCell>
        <mxCell id="4vGkz7nxXuu8QmF7Kftd-46" value="" style="edgeStyle=orthogonalEdgeStyle;rounded=0;orthogonalLoop=1;jettySize=auto;html=1;" parent="1" source="4vGkz7nxXuu8QmF7Kftd-47" target="4vGkz7nxXuu8QmF7Kftd-48" edge="1">
          <mxGeometry relative="1" as="geometry" />
        </mxCell>
        <mxCell id="4vGkz7nxXuu8QmF7Kftd-47" value="Destroy Enemy" style="whiteSpace=wrap;html=1;rounded=0;" parent="1" vertex="1">
          <mxGeometry x="810.64" y="2770" width="120" height="40" as="geometry" />
        </mxCell>
        <mxCell id="4vGkz7nxXuu8QmF7Kftd-48" value="Give Player money" style="whiteSpace=wrap;html=1;rounded=0;" parent="1" vertex="1">
          <mxGeometry x="810.64" y="2840" width="120" height="60" as="geometry" />
        </mxCell>
        <mxCell id="4vGkz7nxXuu8QmF7Kftd-49" value="True" style="edgeStyle=orthogonalEdgeStyle;rounded=0;orthogonalLoop=1;jettySize=auto;html=1;" parent="1" source="4vGkz7nxXuu8QmF7Kftd-50" target="4vGkz7nxXuu8QmF7Kftd-52" edge="1">
          <mxGeometry relative="1" as="geometry" />
        </mxCell>
        <mxCell id="4vGkz7nxXuu8QmF7Kftd-50" value="Did the player die?" style="rhombus;whiteSpace=wrap;html=1;rounded=1;" parent="1" vertex="1">
          <mxGeometry x="480.64" y="2420" width="140" height="120" as="geometry" />
        </mxCell>
        <mxCell id="4vGkz7nxXuu8QmF7Kftd-51" value="" style="edgeStyle=orthogonalEdgeStyle;rounded=0;orthogonalLoop=1;jettySize=auto;html=1;" parent="1" source="4vGkz7nxXuu8QmF7Kftd-52" target="4vGkz7nxXuu8QmF7Kftd-54" edge="1">
          <mxGeometry relative="1" as="geometry" />
        </mxCell>
        <mxCell id="4vGkz7nxXuu8QmF7Kftd-52" value="Pause time" style="whiteSpace=wrap;html=1;rounded=0;" parent="1" vertex="1">
          <mxGeometry x="490.64" y="2590" width="120" height="40" as="geometry" />
        </mxCell>
        <mxCell id="4vGkz7nxXuu8QmF7Kftd-53" value="" style="edgeStyle=orthogonalEdgeStyle;rounded=0;orthogonalLoop=1;jettySize=auto;html=1;" parent="1" source="4vGkz7nxXuu8QmF7Kftd-54" target="4vGkz7nxXuu8QmF7Kftd-56" edge="1">
          <mxGeometry relative="1" as="geometry" />
        </mxCell>
        <mxCell id="4vGkz7nxXuu8QmF7Kftd-54" value="Draw Game over Screen" style="whiteSpace=wrap;html=1;rounded=0;" parent="1" vertex="1">
          <mxGeometry x="490.64" y="2660" width="120" height="60" as="geometry" />
        </mxCell>
        <mxCell id="4vGkz7nxXuu8QmF7Kftd-55" value="True" style="edgeStyle=orthogonalEdgeStyle;rounded=0;orthogonalLoop=1;jettySize=auto;html=1;" parent="1" source="4vGkz7nxXuu8QmF7Kftd-56" target="4vGkz7nxXuu8QmF7Kftd-57" edge="1">
          <mxGeometry relative="1" as="geometry" />
        </mxCell>
        <mxCell id="4vGkz7nxXuu8QmF7Kftd-56" value="Resart?" style="rhombus;whiteSpace=wrap;html=1;rounded=1;" parent="1" vertex="1">
          <mxGeometry x="510.64" y="2750" width="80" height="80" as="geometry" />
        </mxCell>
        <mxCell id="4vGkz7nxXuu8QmF7Kftd-57" value="Resart" style="whiteSpace=wrap;html=1;rounded=0;" parent="1" vertex="1">
          <mxGeometry x="510.64" y="2860" width="80" height="30" as="geometry" />
        </mxCell>
        <mxCell id="4vGkz7nxXuu8QmF7Kftd-58" value="True" style="edgeStyle=orthogonalEdgeStyle;rounded=0;orthogonalLoop=1;jettySize=auto;html=1;" parent="1" source="4vGkz7nxXuu8QmF7Kftd-59" target="4vGkz7nxXuu8QmF7Kftd-61" edge="1">
          <mxGeometry relative="1" as="geometry" />
        </mxCell>
        <mxCell id="4vGkz7nxXuu8QmF7Kftd-59" value="Is player near an Enemy1?" style="rhombus;whiteSpace=wrap;html=1;rounded=1;spacingLeft=10;spacingRight=10;" parent="1" vertex="1">
          <mxGeometry x="480.64" y="1760" width="140" height="120" as="geometry" />
        </mxCell>
        <mxCell id="4vGkz7nxXuu8QmF7Kftd-60" value="" style="edgeStyle=orthogonalEdgeStyle;rounded=0;orthogonalLoop=1;jettySize=auto;html=1;" parent="1" source="4vGkz7nxXuu8QmF7Kftd-61" target="4vGkz7nxXuu8QmF7Kftd-63" edge="1">
          <mxGeometry relative="1" as="geometry" />
        </mxCell>
        <mxCell id="4vGkz7nxXuu8QmF7Kftd-61" value="Calculate path and move" style="whiteSpace=wrap;html=1;rounded=0;" parent="1" vertex="1">
          <mxGeometry x="500.64" y="1920" width="100" height="60" as="geometry" />
        </mxCell>
        <mxCell id="4vGkz7nxXuu8QmF7Kftd-62" value="True" style="edgeStyle=orthogonalEdgeStyle;rounded=0;orthogonalLoop=1;jettySize=auto;html=1;" parent="1" source="4vGkz7nxXuu8QmF7Kftd-63" target="4vGkz7nxXuu8QmF7Kftd-65" edge="1">
          <mxGeometry relative="1" as="geometry" />
        </mxCell>
        <mxCell id="4vGkz7nxXuu8QmF7Kftd-63" value="Close enough?" style="rhombus;whiteSpace=wrap;html=1;rounded=1;" parent="1" vertex="1">
          <mxGeometry x="510.64" y="2010" width="80" height="80" as="geometry" />
        </mxCell>
        <mxCell id="4vGkz7nxXuu8QmF7Kftd-64" value="" style="edgeStyle=orthogonalEdgeStyle;rounded=0;orthogonalLoop=1;jettySize=auto;html=1;" parent="1" source="4vGkz7nxXuu8QmF7Kftd-65" target="4vGkz7nxXuu8QmF7Kftd-38" edge="1">
          <mxGeometry relative="1" as="geometry" />
        </mxCell>
        <mxCell id="4vGkz7nxXuu8QmF7Kftd-65" value="Attack" style="whiteSpace=wrap;html=1;rounded=0;" parent="1" vertex="1">
          <mxGeometry x="510.64" y="2130" width="80" height="30" as="geometry" />
        </mxCell>
        <mxCell id="4vGkz7nxXuu8QmF7Kftd-66" value="True" style="edgeStyle=orthogonalEdgeStyle;rounded=0;orthogonalLoop=1;jettySize=auto;html=1;" parent="1" source="4vGkz7nxXuu8QmF7Kftd-67" target="4vGkz7nxXuu8QmF7Kftd-69" edge="1">
          <mxGeometry relative="1" as="geometry" />
        </mxCell>
        <mxCell id="4vGkz7nxXuu8QmF7Kftd-67" value="Did the player reload?" style="rhombus;whiteSpace=wrap;html=1;rounded=1;" parent="1" vertex="1">
          <mxGeometry x="960.64" y="1760" width="140" height="120" as="geometry" />
        </mxCell>
        <mxCell id="4vGkz7nxXuu8QmF7Kftd-68" value="False" style="edgeStyle=orthogonalEdgeStyle;rounded=0;orthogonalLoop=1;jettySize=auto;html=1;" parent="1" source="4vGkz7nxXuu8QmF7Kftd-69" target="4vGkz7nxXuu8QmF7Kftd-71" edge="1">
          <mxGeometry relative="1" as="geometry" />
        </mxCell>
        <mxCell id="4vGkz7nxXuu8QmF7Kftd-69" value="Is ammo full" style="rhombus;whiteSpace=wrap;html=1;rounded=1;" parent="1" vertex="1">
          <mxGeometry x="990.64" y="1920" width="80" height="80" as="geometry" />
        </mxCell>
        <mxCell id="4vGkz7nxXuu8QmF7Kftd-70" value="" style="edgeStyle=orthogonalEdgeStyle;rounded=0;orthogonalLoop=1;jettySize=auto;html=1;" parent="1" source="4vGkz7nxXuu8QmF7Kftd-71" target="4vGkz7nxXuu8QmF7Kftd-76" edge="1">
          <mxGeometry relative="1" as="geometry" />
        </mxCell>
        <mxCell id="4vGkz7nxXuu8QmF7Kftd-71" value="Play reload animation" style="whiteSpace=wrap;html=1;rounded=0;" parent="1" vertex="1">
          <mxGeometry x="970.64" y="2050" width="120" height="60" as="geometry" />
        </mxCell>
        <mxCell id="4vGkz7nxXuu8QmF7Kftd-72" value="True" style="edgeStyle=orthogonalEdgeStyle;rounded=0;orthogonalLoop=1;jettySize=auto;html=1;" parent="1" source="4vGkz7nxXuu8QmF7Kftd-75" target="4vGkz7nxXuu8QmF7Kftd-32" edge="1">
          <mxGeometry relative="1" as="geometry" />
        </mxCell>
        <mxCell id="4vGkz7nxXuu8QmF7Kftd-73" value="" style="edgeStyle=orthogonalEdgeStyle;rounded=0;orthogonalLoop=1;jettySize=auto;html=1;" parent="1" source="4vGkz7nxXuu8QmF7Kftd-75" target="4vGkz7nxXuu8QmF7Kftd-84" edge="1">
          <mxGeometry relative="1" as="geometry" />
        </mxCell>
        <mxCell id="4vGkz7nxXuu8QmF7Kftd-74" value="False" style="edgeLabel;html=1;align=center;verticalAlign=middle;resizable=0;points=[];" parent="4vGkz7nxXuu8QmF7Kftd-73" vertex="1" connectable="0">
          <mxGeometry x="-0.4304" y="1" relative="1" as="geometry">
            <mxPoint as="offset" />
          </mxGeometry>
        </mxCell>
        <mxCell id="4vGkz7nxXuu8QmF7Kftd-75" value="Is there ammo?" style="rhombus;whiteSpace=wrap;html=1;rounded=1;" parent="1" vertex="1">
          <mxGeometry x="810.64" y="1970" width="120" height="100" as="geometry" />
        </mxCell>
        <mxCell id="4vGkz7nxXuu8QmF7Kftd-76" value="Replenish ammo" style="whiteSpace=wrap;html=1;rounded=0;" parent="1" vertex="1">
          <mxGeometry x="970.64" y="2150" width="120" height="60" as="geometry" />
        </mxCell>
        <mxCell id="4vGkz7nxXuu8QmF7Kftd-77" value="True" style="edgeStyle=orthogonalEdgeStyle;rounded=0;orthogonalLoop=1;jettySize=auto;html=1;" parent="1" source="4vGkz7nxXuu8QmF7Kftd-78" target="4vGkz7nxXuu8QmF7Kftd-80" edge="1">
          <mxGeometry relative="1" as="geometry" />
        </mxCell>
        <mxCell id="4vGkz7nxXuu8QmF7Kftd-78" value="Did the player Jump?" style="rhombus;whiteSpace=wrap;html=1;rounded=1;" parent="1" vertex="1">
          <mxGeometry x="1120.6399999999999" y="1760" width="140" height="120" as="geometry" />
        </mxCell>
        <mxCell id="4vGkz7nxXuu8QmF7Kftd-79" value="True" style="edgeStyle=orthogonalEdgeStyle;rounded=0;orthogonalLoop=1;jettySize=auto;html=1;" parent="1" source="4vGkz7nxXuu8QmF7Kftd-80" target="4vGkz7nxXuu8QmF7Kftd-82" edge="1">
          <mxGeometry relative="1" as="geometry" />
        </mxCell>
        <mxCell id="4vGkz7nxXuu8QmF7Kftd-80" value="Is player grounded?" style="rhombus;whiteSpace=wrap;html=1;rounded=1;" parent="1" vertex="1">
          <mxGeometry x="1145.6399999999999" y="1915" width="90" height="90" as="geometry" />
        </mxCell>
        <mxCell id="4vGkz7nxXuu8QmF7Kftd-81" value="" style="edgeStyle=orthogonalEdgeStyle;rounded=0;orthogonalLoop=1;jettySize=auto;html=1;" parent="1" source="4vGkz7nxXuu8QmF7Kftd-82" target="4vGkz7nxXuu8QmF7Kftd-83" edge="1">
          <mxGeometry relative="1" as="geometry" />
        </mxCell>
        <mxCell id="4vGkz7nxXuu8QmF7Kftd-82" value="Change Grounded to false" style="whiteSpace=wrap;html=1;rounded=0;" parent="1" vertex="1">
          <mxGeometry x="1130.6399999999999" y="2050" width="120" height="60" as="geometry" />
        </mxCell>
        <mxCell id="4vGkz7nxXuu8QmF7Kftd-83" value="Change vertical velocity." style="whiteSpace=wrap;html=1;rounded=0;" parent="1" vertex="1">
          <mxGeometry x="1130.6399999999999" y="2145" width="120" height="60" as="geometry" />
        </mxCell>
        <mxCell id="4vGkz7nxXuu8QmF7Kftd-84" value="Play empty gun animation" style="whiteSpace=wrap;html=1;rounded=0;" parent="1" vertex="1">
          <mxGeometry x="650.64" y="2100" width="120" height="60" as="geometry" />
        </mxCell>
        <mxCell id="4vGkz7nxXuu8QmF7Kftd-85" value="" style="edgeStyle=orthogonalEdgeStyle;rounded=0;orthogonalLoop=1;jettySize=auto;html=1;" parent="1" source="4vGkz7nxXuu8QmF7Kftd-86" target="4vGkz7nxXuu8QmF7Kftd-34" edge="1">
          <mxGeometry relative="1" as="geometry" />
        </mxCell>
        <mxCell id="4vGkz7nxXuu8QmF7Kftd-86" value="Play shoot animation" style="whiteSpace=wrap;html=1;rounded=0;" parent="1" vertex="1">
          <mxGeometry x="810.64" y="2240" width="120" height="60" as="geometry" />
        </mxCell>
        <mxCell id="4vGkz7nxXuu8QmF7Kftd-87" style="edgeStyle=orthogonalEdgeStyle;rounded=0;orthogonalLoop=1;jettySize=auto;html=1;" parent="1" source="4vGkz7nxXuu8QmF7Kftd-89" target="4vGkz7nxXuu8QmF7Kftd-16" edge="1">
          <mxGeometry relative="1" as="geometry" />
        </mxCell>
        <mxCell id="4vGkz7nxXuu8QmF7Kftd-88" value="False" style="edgeLabel;html=1;align=center;verticalAlign=middle;resizable=0;points=[];" parent="4vGkz7nxXuu8QmF7Kftd-87" vertex="1" connectable="0">
          <mxGeometry x="-0.1019" relative="1" as="geometry">
            <mxPoint as="offset" />
          </mxGeometry>
        </mxCell>
        <mxCell id="4vGkz7nxXuu8QmF7Kftd-89" value="Is grounded?" style="rhombus;whiteSpace=wrap;html=1;rounded=1;" parent="1" vertex="1">
          <mxGeometry x="160" y="1760" width="140" height="120" as="geometry" />
        </mxCell>
        <mxCell id="4vGkz7nxXuu8QmF7Kftd-90" value="" style="edgeStyle=orthogonalEdgeStyle;rounded=0;orthogonalLoop=1;jettySize=auto;html=1;" parent="1" source="4vGkz7nxXuu8QmF7Kftd-91" target="4vGkz7nxXuu8QmF7Kftd-93" edge="1">
          <mxGeometry relative="1" as="geometry" />
        </mxCell>
        <mxCell id="4vGkz7nxXuu8QmF7Kftd-91" value="Get Level Walls through Separate file." style="rounded=0;whiteSpace=wrap;html=1;" parent="1" vertex="1">
          <mxGeometry x="810.64" y="1290" width="120" height="60" as="geometry" />
        </mxCell>
        <mxCell id="4vGkz7nxXuu8QmF7Kftd-92" value="" style="edgeStyle=orthogonalEdgeStyle;rounded=0;orthogonalLoop=1;jettySize=auto;html=1;" parent="1" source="4vGkz7nxXuu8QmF7Kftd-93" target="4vGkz7nxXuu8QmF7Kftd-95" edge="1">
          <mxGeometry relative="1" as="geometry" />
        </mxCell>
        <mxCell id="4vGkz7nxXuu8QmF7Kftd-93" value="Supply ammo" style="whiteSpace=wrap;html=1;rounded=0;" parent="1" vertex="1">
          <mxGeometry x="810.64" y="1400" width="120" height="60" as="geometry" />
        </mxCell>
        <mxCell id="4vGkz7nxXuu8QmF7Kftd-94" style="edgeStyle=orthogonalEdgeStyle;rounded=0;orthogonalLoop=1;jettySize=auto;html=1;entryX=0.5;entryY=0;entryDx=0;entryDy=0;" parent="1" source="4vGkz7nxXuu8QmF7Kftd-95" target="4vGkz7nxXuu8QmF7Kftd-30" edge="1">
          <mxGeometry relative="1" as="geometry" />
        </mxCell>
        <mxCell id="4vGkz7nxXuu8QmF7Kftd-95" value="Set up texture maps" style="whiteSpace=wrap;html=1;rounded=0;" parent="1" vertex="1">
          <mxGeometry x="810.64" y="1490" width="120" height="60" as="geometry" />
        </mxCell>
        <mxCell id="4vGkz7nxXuu8QmF7Kftd-96" value="True" style="edgeStyle=orthogonalEdgeStyle;rounded=0;orthogonalLoop=1;jettySize=auto;html=1;" parent="1" source="4vGkz7nxXuu8QmF7Kftd-97" target="4vGkz7nxXuu8QmF7Kftd-105" edge="1">
          <mxGeometry relative="1" as="geometry" />
        </mxCell>
        <mxCell id="4vGkz7nxXuu8QmF7Kftd-97" value="Did the player press ESC" style="rhombus;whiteSpace=wrap;html=1;rounded=1;spacingRight=10;spacingLeft=10;" parent="1" vertex="1">
          <mxGeometry x="1270.6399999999999" y="1760" width="140" height="120" as="geometry" />
        </mxCell>
        <mxCell id="4vGkz7nxXuu8QmF7Kftd-98" value="" style="edgeStyle=orthogonalEdgeStyle;rounded=0;orthogonalLoop=1;jettySize=auto;html=1;" parent="1" source="4vGkz7nxXuu8QmF7Kftd-99" target="4vGkz7nxXuu8QmF7Kftd-100" edge="1">
          <mxGeometry relative="1" as="geometry" />
        </mxCell>
        <mxCell id="4vGkz7nxXuu8QmF7Kftd-99" value="Tint screen" style="whiteSpace=wrap;html=1;rounded=0;spacingRight=10;spacingLeft=10;" parent="1" vertex="1">
          <mxGeometry x="1295.6399999999999" y="2070" width="90" height="40" as="geometry" />
        </mxCell>
        <mxCell id="4vGkz7nxXuu8QmF7Kftd-100" value="Pause time" style="whiteSpace=wrap;html=1;rounded=0;spacingRight=10;spacingLeft=10;" parent="1" vertex="1">
          <mxGeometry x="1280.6399999999999" y="2145" width="120" height="60" as="geometry" />
        </mxCell>
        <mxCell id="4vGkz7nxXuu8QmF7Kftd-101" value="" style="edgeStyle=orthogonalEdgeStyle;rounded=0;orthogonalLoop=1;jettySize=auto;html=1;" parent="1" source="4vGkz7nxXuu8QmF7Kftd-105" target="4vGkz7nxXuu8QmF7Kftd-99" edge="1">
          <mxGeometry relative="1" as="geometry" />
        </mxCell>
        <mxCell id="4vGkz7nxXuu8QmF7Kftd-102" value="False" style="edgeLabel;html=1;align=center;verticalAlign=middle;resizable=0;points=[];" parent="4vGkz7nxXuu8QmF7Kftd-101" vertex="1" connectable="0">
          <mxGeometry x="-0.0134" y="1" relative="1" as="geometry">
            <mxPoint as="offset" />
          </mxGeometry>
        </mxCell>
        <mxCell id="4vGkz7nxXuu8QmF7Kftd-103" value="" style="edgeStyle=orthogonalEdgeStyle;rounded=0;orthogonalLoop=1;jettySize=auto;html=1;" parent="1" source="4vGkz7nxXuu8QmF7Kftd-105" target="4vGkz7nxXuu8QmF7Kftd-107" edge="1">
          <mxGeometry relative="1" as="geometry">
            <Array as="points">
              <mxPoint x="1460.64" y="1960" />
              <mxPoint x="1460.64" y="2270" />
            </Array>
          </mxGeometry>
        </mxCell>
        <mxCell id="4vGkz7nxXuu8QmF7Kftd-104" value="True" style="edgeLabel;html=1;align=center;verticalAlign=middle;resizable=0;points=[];" parent="4vGkz7nxXuu8QmF7Kftd-103" vertex="1" connectable="0">
          <mxGeometry x="-0.0744" y="3" relative="1" as="geometry">
            <mxPoint as="offset" />
          </mxGeometry>
        </mxCell>
        <mxCell id="4vGkz7nxXuu8QmF7Kftd-105" value="Is it currently paused?" style="rhombus;whiteSpace=wrap;html=1;rounded=1;spacingRight=10;spacingLeft=10;" parent="1" vertex="1">
          <mxGeometry x="1285.6399999999999" y="1915" width="110" height="90" as="geometry" />
        </mxCell>
        <mxCell id="4vGkz7nxXuu8QmF7Kftd-106" value="" style="edgeStyle=orthogonalEdgeStyle;rounded=0;orthogonalLoop=1;jettySize=auto;html=1;" parent="1" source="4vGkz7nxXuu8QmF7Kftd-107" target="4vGkz7nxXuu8QmF7Kftd-108" edge="1">
          <mxGeometry relative="1" as="geometry" />
        </mxCell>
        <mxCell id="4vGkz7nxXuu8QmF7Kftd-107" value="Untint screen" style="whiteSpace=wrap;html=1;rounded=0;spacingRight=10;spacingLeft=10;" parent="1" vertex="1">
          <mxGeometry x="1280.6399999999999" y="2240" width="120" height="60" as="geometry" />
        </mxCell>
        <mxCell id="4vGkz7nxXuu8QmF7Kftd-108" value="Un pause time" style="whiteSpace=wrap;html=1;rounded=0;spacingRight=10;spacingLeft=10;" parent="1" vertex="1">
          <mxGeometry x="1280.6399999999999" y="2330" width="120" height="60" as="geometry" />
        </mxCell>
        <mxCell id="4vGkz7nxXuu8QmF7Kftd-109" value="&lt;span style=&quot;color: rgb(0, 0, 0); font-family: &amp;quot;Times New Roman&amp;quot;; font-size: medium;&quot;&gt;After you fill out the Description.docx file, draw a representation of each screen for your game using draw.io. You will have 6 game play screens/levels and create a flowchart for each of the 6 screens/levels. Save the drawing and flowchart for each screen separately in your Algorithm folder. By the end you will have a Screen1.drawio, Screen2.drawio, Screen3.drawio …up to Screen6.drawio. These do not include splash/welcome/game over/store screens. The six screens/levels that we are planning here are game play only. Note: your finished game should also have instructions &amp;amp; game over screens but we won’t be detailing them here.&lt;/span&gt;" style="rounded=0;whiteSpace=wrap;html=1;align=left;verticalAlign=top;spacingBottom=10;spacingLeft=10;spacingRight=10;spacingTop=10;" parent="1" vertex="1">
          <mxGeometry x="340.64" y="1290" width="390" height="280" as="geometry" />
        </mxCell>
        <mxCell id="4vGkz7nxXuu8QmF7Kftd-110" value="True" style="edgeStyle=orthogonalEdgeStyle;rounded=0;orthogonalLoop=1;jettySize=auto;html=1;" parent="1" source="4vGkz7nxXuu8QmF7Kftd-111" target="4vGkz7nxXuu8QmF7Kftd-113" edge="1">
          <mxGeometry relative="1" as="geometry" />
        </mxCell>
        <mxCell id="4vGkz7nxXuu8QmF7Kftd-111" value="Did the player press CTRL" style="rhombus;whiteSpace=wrap;html=1;rounded=1;spacingRight=10;spacingLeft=10;" parent="1" vertex="1">
          <mxGeometry x="1500.64" y="1760" width="140" height="120" as="geometry" />
        </mxCell>
        <mxCell id="4vGkz7nxXuu8QmF7Kftd-112" value="" style="edgeStyle=orthogonalEdgeStyle;rounded=0;orthogonalLoop=1;jettySize=auto;html=1;" parent="1" source="4vGkz7nxXuu8QmF7Kftd-113" target="4vGkz7nxXuu8QmF7Kftd-114" edge="1">
          <mxGeometry relative="1" as="geometry" />
        </mxCell>
        <mxCell id="4vGkz7nxXuu8QmF7Kftd-113" value="Get direction (forward)" style="whiteSpace=wrap;html=1;rounded=0;spacingRight=10;spacingLeft=10;" parent="1" vertex="1">
          <mxGeometry x="1510.64" y="1920" width="120" height="60" as="geometry" />
        </mxCell>
        <mxCell id="4vGkz7nxXuu8QmF7Kftd-114" value="Add vector to player position." style="whiteSpace=wrap;html=1;rounded=0;spacingRight=10;spacingLeft=10;" parent="1" vertex="1">
          <mxGeometry x="1510.64" y="2020" width="120" height="60" as="geometry" />
        </mxCell>
        <mxCell id="4vGkz7nxXuu8QmF7Kftd-115" value="Level 3" style="text;strokeColor=none;fillColor=none;html=1;fontSize=24;fontStyle=1;verticalAlign=middle;align=center;" parent="1" vertex="1">
          <mxGeometry width="180" height="80" as="geometry" />
        </mxCell>
        <mxCell id="4vGkz7nxXuu8QmF7Kftd-168" value="True" style="edgeStyle=orthogonalEdgeStyle;rounded=0;orthogonalLoop=1;jettySize=auto;html=1;" parent="1" source="4vGkz7nxXuu8QmF7Kftd-169" target="4vGkz7nxXuu8QmF7Kftd-171" edge="1">
          <mxGeometry relative="1" as="geometry" />
        </mxCell>
        <mxCell id="4vGkz7nxXuu8QmF7Kftd-169" value="Is a button near?" style="rhombus;whiteSpace=wrap;html=1;rounded=1;spacingRight=10;spacingLeft=10;" parent="1" vertex="1">
          <mxGeometry x="1660" y="1910" width="140" height="120" as="geometry" />
        </mxCell>
        <mxCell id="4vGkz7nxXuu8QmF7Kftd-170" value="" style="edgeStyle=orthogonalEdgeStyle;rounded=0;orthogonalLoop=1;jettySize=auto;html=1;" parent="1" source="4vGkz7nxXuu8QmF7Kftd-171" target="4vGkz7nxXuu8QmF7Kftd-172" edge="1">
          <mxGeometry relative="1" as="geometry" />
        </mxCell>
        <mxCell id="4vGkz7nxXuu8QmF7Kftd-171" value="Open door" style="whiteSpace=wrap;html=1;rounded=0;spacingRight=10;spacingLeft=10;" parent="1" vertex="1">
          <mxGeometry x="1670" y="2070" width="120" height="60" as="geometry" />
        </mxCell>
        <mxCell id="4vGkz7nxXuu8QmF7Kftd-172" value="Deactivate Button" style="whiteSpace=wrap;html=1;rounded=0;spacingRight=10;spacingLeft=10;" parent="1" vertex="1">
          <mxGeometry x="1670" y="2170" width="120" height="60" as="geometry" />
        </mxCell>
        <mxCell id="4vGkz7nxXuu8QmF7Kftd-173" value="True" style="edgeStyle=orthogonalEdgeStyle;rounded=0;orthogonalLoop=1;jettySize=auto;html=1;" parent="1" source="4vGkz7nxXuu8QmF7Kftd-174" target="4vGkz7nxXuu8QmF7Kftd-169" edge="1">
          <mxGeometry relative="1" as="geometry" />
        </mxCell>
        <mxCell id="4vGkz7nxXuu8QmF7Kftd-174" value="Did the player press E?" style="rhombus;whiteSpace=wrap;html=1;rounded=1;spacingRight=10;spacingLeft=10;" parent="1" vertex="1">
          <mxGeometry x="1660" y="1760" width="140" height="120" as="geometry" />
        </mxCell>
        <mxCell id="4vGkz7nxXuu8QmF7Kftd-175" style="edgeStyle=orthogonalEdgeStyle;rounded=0;orthogonalLoop=1;jettySize=auto;html=1;entryX=0.5;entryY=0;entryDx=0;entryDy=0;" parent="1" source="4vGkz7nxXuu8QmF7Kftd-177" target="4vGkz7nxXuu8QmF7Kftd-179" edge="1">
          <mxGeometry relative="1" as="geometry" />
        </mxCell>
        <mxCell id="4vGkz7nxXuu8QmF7Kftd-176" value="True" style="edgeLabel;html=1;align=center;verticalAlign=middle;resizable=0;points=[];" parent="4vGkz7nxXuu8QmF7Kftd-175" vertex="1" connectable="0">
          <mxGeometry x="0.1016" y="3" relative="1" as="geometry">
            <mxPoint as="offset" />
          </mxGeometry>
        </mxCell>
        <mxCell id="4vGkz7nxXuu8QmF7Kftd-177" value="Did the player get hit by projectile?" style="rhombus;whiteSpace=wrap;html=1;rounded=1;spacingRight=10;spacingLeft=10;" parent="1" vertex="1">
          <mxGeometry x="1820" y="1760" width="140" height="120" as="geometry" />
        </mxCell>
        <mxCell id="4vGkz7nxXuu8QmF7Kftd-178" value="" style="edgeStyle=orthogonalEdgeStyle;rounded=0;orthogonalLoop=1;jettySize=auto;html=1;" parent="1" source="4vGkz7nxXuu8QmF7Kftd-179" target="4vGkz7nxXuu8QmF7Kftd-181" edge="1">
          <mxGeometry relative="1" as="geometry" />
        </mxCell>
        <mxCell id="4vGkz7nxXuu8QmF7Kftd-179" value="Decrease player hp by enemy dmg" style="rounded=0;whiteSpace=wrap;html=1;" parent="1" vertex="1">
          <mxGeometry x="1830" y="1915" width="120" height="60" as="geometry" />
        </mxCell>
        <mxCell id="4vGkz7nxXuu8QmF7Kftd-180" value="True" style="edgeStyle=orthogonalEdgeStyle;rounded=0;orthogonalLoop=1;jettySize=auto;html=1;" parent="1" source="4vGkz7nxXuu8QmF7Kftd-181" target="4vGkz7nxXuu8QmF7Kftd-183" edge="1">
          <mxGeometry relative="1" as="geometry" />
        </mxCell>
        <mxCell id="4vGkz7nxXuu8QmF7Kftd-181" value="Did the player die?" style="rhombus;whiteSpace=wrap;html=1;rounded=1;" parent="1" vertex="1">
          <mxGeometry x="1820" y="1995" width="140" height="120" as="geometry" />
        </mxCell>
        <mxCell id="4vGkz7nxXuu8QmF7Kftd-182" value="" style="edgeStyle=orthogonalEdgeStyle;rounded=0;orthogonalLoop=1;jettySize=auto;html=1;" parent="1" source="4vGkz7nxXuu8QmF7Kftd-183" target="4vGkz7nxXuu8QmF7Kftd-185" edge="1">
          <mxGeometry relative="1" as="geometry" />
        </mxCell>
        <mxCell id="4vGkz7nxXuu8QmF7Kftd-183" value="Pause time" style="whiteSpace=wrap;html=1;rounded=0;" parent="1" vertex="1">
          <mxGeometry x="1830" y="2165" width="120" height="40" as="geometry" />
        </mxCell>
        <mxCell id="4vGkz7nxXuu8QmF7Kftd-184" value="" style="edgeStyle=orthogonalEdgeStyle;rounded=0;orthogonalLoop=1;jettySize=auto;html=1;" parent="1" source="4vGkz7nxXuu8QmF7Kftd-185" target="4vGkz7nxXuu8QmF7Kftd-187" edge="1">
          <mxGeometry relative="1" as="geometry" />
        </mxCell>
        <mxCell id="4vGkz7nxXuu8QmF7Kftd-185" value="Draw Game over Screen" style="whiteSpace=wrap;html=1;rounded=0;" parent="1" vertex="1">
          <mxGeometry x="1830" y="2235" width="120" height="60" as="geometry" />
        </mxCell>
        <mxCell id="4vGkz7nxXuu8QmF7Kftd-186" value="True" style="edgeStyle=orthogonalEdgeStyle;rounded=0;orthogonalLoop=1;jettySize=auto;html=1;" parent="1" source="4vGkz7nxXuu8QmF7Kftd-187" target="4vGkz7nxXuu8QmF7Kftd-188" edge="1">
          <mxGeometry relative="1" as="geometry" />
        </mxCell>
        <mxCell id="4vGkz7nxXuu8QmF7Kftd-187" value="Resart?" style="rhombus;whiteSpace=wrap;html=1;rounded=1;" parent="1" vertex="1">
          <mxGeometry x="1850" y="2325" width="80" height="80" as="geometry" />
        </mxCell>
        <mxCell id="4vGkz7nxXuu8QmF7Kftd-188" value="Resart" style="whiteSpace=wrap;html=1;rounded=0;" parent="1" vertex="1">
          <mxGeometry x="1850" y="2435" width="80" height="30" as="geometry" />
        </mxCell>
        <mxCell id="4vGkz7nxXuu8QmF7Kftd-189" value="True" style="edgeStyle=orthogonalEdgeStyle;rounded=0;orthogonalLoop=1;jettySize=auto;html=1;" parent="1" source="4vGkz7nxXuu8QmF7Kftd-190" target="4vGkz7nxXuu8QmF7Kftd-195" edge="1">
          <mxGeometry relative="1" as="geometry" />
        </mxCell>
        <mxCell id="4vGkz7nxXuu8QmF7Kftd-190" value="Is player near an Enemy2?" style="rhombus;whiteSpace=wrap;html=1;rounded=1;spacingLeft=10;spacingRight=10;" parent="1" vertex="1">
          <mxGeometry x="320.64" y="1760" width="140" height="120" as="geometry" />
        </mxCell>
        <mxCell id="4vGkz7nxXuu8QmF7Kftd-191" value="" style="edgeStyle=orthogonalEdgeStyle;rounded=0;orthogonalLoop=1;jettySize=auto;html=1;" parent="1" source="4vGkz7nxXuu8QmF7Kftd-195" target="4vGkz7nxXuu8QmF7Kftd-196" edge="1">
          <mxGeometry relative="1" as="geometry" />
        </mxCell>
        <mxCell id="4vGkz7nxXuu8QmF7Kftd-192" value="False" style="edgeLabel;html=1;align=center;verticalAlign=middle;resizable=0;points=[];" parent="4vGkz7nxXuu8QmF7Kftd-191" vertex="1" connectable="0">
          <mxGeometry x="-0.2741" relative="1" as="geometry">
            <mxPoint as="offset" />
          </mxGeometry>
        </mxCell>
        <mxCell id="4vGkz7nxXuu8QmF7Kftd-193" value="" style="edgeStyle=orthogonalEdgeStyle;rounded=0;orthogonalLoop=1;jettySize=auto;html=1;" parent="1" source="4vGkz7nxXuu8QmF7Kftd-195" target="4vGkz7nxXuu8QmF7Kftd-198" edge="1">
          <mxGeometry relative="1" as="geometry" />
        </mxCell>
        <mxCell id="4vGkz7nxXuu8QmF7Kftd-194" value="True" style="edgeLabel;html=1;align=center;verticalAlign=middle;resizable=0;points=[];" parent="4vGkz7nxXuu8QmF7Kftd-193" vertex="1" connectable="0">
          <mxGeometry x="0.0334" relative="1" as="geometry">
            <mxPoint as="offset" />
          </mxGeometry>
        </mxCell>
        <mxCell id="4vGkz7nxXuu8QmF7Kftd-195" value="Is it too close?" style="rhombus;whiteSpace=wrap;html=1;rounded=1;" parent="1" vertex="1">
          <mxGeometry x="340.64" y="2000" width="99.36" height="80" as="geometry" />
        </mxCell>
        <mxCell id="4vGkz7nxXuu8QmF7Kftd-196" value="Shoot projectile at player direction." style="whiteSpace=wrap;html=1;rounded=0;" parent="1" vertex="1">
          <mxGeometry x="170" y="2010" width="120" height="60" as="geometry" />
        </mxCell>
        <mxCell id="4vGkz7nxXuu8QmF7Kftd-197" style="edgeStyle=orthogonalEdgeStyle;rounded=0;orthogonalLoop=1;jettySize=auto;html=1;entryX=1;entryY=0.5;entryDx=0;entryDy=0;" parent="1" source="4vGkz7nxXuu8QmF7Kftd-198" target="4vGkz7nxXuu8QmF7Kftd-195" edge="1">
          <mxGeometry relative="1" as="geometry">
            <Array as="points">
              <mxPoint x="480" y="2160" />
              <mxPoint x="480" y="2040" />
            </Array>
          </mxGeometry>
        </mxCell>
        <mxCell id="4vGkz7nxXuu8QmF7Kftd-198" value="Calculate path to make distance between the player." style="whiteSpace=wrap;html=1;rounded=0;" parent="1" vertex="1">
          <mxGeometry x="330.64" y="2130" width="120" height="60" as="geometry" />
        </mxCell>
        <mxCell id="4vGkz7nxXuu8QmF7Kftd-199" value="True" style="edgeStyle=orthogonalEdgeStyle;rounded=0;orthogonalLoop=1;jettySize=auto;html=1;" parent="1" source="4vGkz7nxXuu8QmF7Kftd-201" target="4vGkz7nxXuu8QmF7Kftd-203" edge="1">
          <mxGeometry relative="1" as="geometry" />
        </mxCell>
        <mxCell id="4vGkz7nxXuu8QmF7Kftd-200" value="False" style="edgeStyle=orthogonalEdgeStyle;rounded=0;orthogonalLoop=1;jettySize=auto;html=1;" parent="1" source="4vGkz7nxXuu8QmF7Kftd-201" target="4vGkz7nxXuu8QmF7Kftd-207" edge="1">
          <mxGeometry relative="1" as="geometry">
            <Array as="points">
              <mxPoint x="2130" y="1970" />
              <mxPoint x="2130" y="2295" />
            </Array>
          </mxGeometry>
        </mxCell>
        <mxCell id="4vGkz7nxXuu8QmF7Kftd-201" value="Is it available?&lt;div&gt;(no cooldown?)&lt;/div&gt;" style="rhombus;whiteSpace=wrap;html=1;rounded=1;spacingRight=10;spacingLeft=10;" parent="1" vertex="1">
          <mxGeometry x="1970" y="1910" width="140" height="120" as="geometry" />
        </mxCell>
        <mxCell id="4vGkz7nxXuu8QmF7Kftd-202" value="" style="edgeStyle=orthogonalEdgeStyle;rounded=0;orthogonalLoop=1;jettySize=auto;html=1;" parent="1" source="4vGkz7nxXuu8QmF7Kftd-203" target="4vGkz7nxXuu8QmF7Kftd-204" edge="1">
          <mxGeometry relative="1" as="geometry" />
        </mxCell>
        <mxCell id="4vGkz7nxXuu8QmF7Kftd-203" value="Use gadget&lt;div&gt;(Grenade)&lt;/div&gt;" style="whiteSpace=wrap;html=1;rounded=0;spacingRight=10;spacingLeft=10;" parent="1" vertex="1">
          <mxGeometry x="1980" y="2070" width="120" height="60" as="geometry" />
        </mxCell>
        <mxCell id="4vGkz7nxXuu8QmF7Kftd-204" value="Set cooldown." style="whiteSpace=wrap;html=1;rounded=0;spacingRight=10;spacingLeft=10;" parent="1" vertex="1">
          <mxGeometry x="1980" y="2170" width="120" height="60" as="geometry" />
        </mxCell>
        <mxCell id="4vGkz7nxXuu8QmF7Kftd-205" value="True" style="edgeStyle=orthogonalEdgeStyle;rounded=0;orthogonalLoop=1;jettySize=auto;html=1;" parent="1" source="4vGkz7nxXuu8QmF7Kftd-206" target="4vGkz7nxXuu8QmF7Kftd-201" edge="1">
          <mxGeometry relative="1" as="geometry" />
        </mxCell>
        <mxCell id="4vGkz7nxXuu8QmF7Kftd-206" value="Did the player press G?" style="rhombus;whiteSpace=wrap;html=1;rounded=1;spacingRight=10;spacingLeft=10;" parent="1" vertex="1">
          <mxGeometry x="1970" y="1760" width="140" height="120" as="geometry" />
        </mxCell>
        <mxCell id="4vGkz7nxXuu8QmF7Kftd-207" value="Decrease cooldown." style="whiteSpace=wrap;html=1;rounded=0;spacingRight=10;spacingLeft=10;" parent="1" vertex="1">
          <mxGeometry x="1980" y="2265" width="120" height="60" as="geometry" />
        </mxCell>
        <mxCell id="NjJisONS0e7iSbClvMFq-1" value="" style="rounded=0;whiteSpace=wrap;html=1;fillColor=#6a00ff;fontColor=#ffffff;strokeColor=#3700CC;rotation=0;" parent="1" vertex="1">
          <mxGeometry x="1860.6399999999999" y="370" width="249.36" height="10" as="geometry" />
        </mxCell>
        <mxCell id="NjJisONS0e7iSbClvMFq-2" value="" style="rounded=0;whiteSpace=wrap;html=1;fillColor=#6a00ff;fontColor=#ffffff;strokeColor=#3700CC;rotation=0;" parent="1" vertex="1">
          <mxGeometry x="1860.3200000000002" y="610" width="249.68" height="10" as="geometry" />
        </mxCell>
        <mxCell id="NjJisONS0e7iSbClvMFq-3" value="" style="rounded=0;whiteSpace=wrap;html=1;fillColor=#6a00ff;fontColor=#ffffff;strokeColor=#3700CC;rotation=90;" parent="1" vertex="1">
          <mxGeometry x="1750" y="490" width="240" height="10" as="geometry" />
        </mxCell>
        <mxCell id="NjJisONS0e7iSbClvMFq-4" value="" style="rounded=0;whiteSpace=wrap;html=1;fillColor=#6a00ff;fontColor=#ffffff;strokeColor=#3700CC;rotation=90;" parent="1" vertex="1">
          <mxGeometry x="1350" y="480" width="239.04" height="10" as="geometry" />
        </mxCell>
        <mxCell id="NjJisONS0e7iSbClvMFq-5" value="" style="rounded=0;whiteSpace=wrap;html=1;fillColor=#6a00ff;fontColor=#ffffff;strokeColor=#3700CC;rotation=90;" parent="1" vertex="1">
          <mxGeometry x="2180" y="760" width="289.36" height="10" as="geometry" />
        </mxCell>
        <mxCell id="NjJisONS0e7iSbClvMFq-6" value="" style="rounded=0;whiteSpace=wrap;html=1;fillColor=#6a00ff;fontColor=#ffffff;strokeColor=#3700CC;rotation=0;" parent="1" vertex="1">
          <mxGeometry x="200" y="890" width="2910" height="10" as="geometry" />
        </mxCell>
        <mxCell id="NjJisONS0e7iSbClvMFq-7" value="" style="rounded=0;whiteSpace=wrap;html=1;fillColor=#6a00ff;fontColor=#ffffff;strokeColor=#3700CC;rotation=0;" parent="1" vertex="1">
          <mxGeometry x="190" y="90" width="2920" height="10" as="geometry" />
        </mxCell>
        <mxCell id="NjJisONS0e7iSbClvMFq-9" value="" style="rounded=0;whiteSpace=wrap;html=1;fillColor=#6a00ff;fontColor=#ffffff;strokeColor=#3700CC;rotation=90;" parent="1" vertex="1">
          <mxGeometry x="1078.88" y="290.16" width="199.36" height="10" as="geometry" />
        </mxCell>
        <mxCell id="NjJisONS0e7iSbClvMFq-10" value="" style="rounded=0;whiteSpace=wrap;html=1;fillColor=#6a00ff;fontColor=#ffffff;strokeColor=#3700CC;rotation=90;" parent="1" vertex="1">
          <mxGeometry x="1078.72" y="669.68" width="199.68" height="10" as="geometry" />
        </mxCell>
        <mxCell id="NjJisONS0e7iSbClvMFq-11" value="" style="rounded=0;whiteSpace=wrap;html=1;fillColor=#6a00ff;fontColor=#ffffff;strokeColor=#3700CC;rotation=90;" parent="1" vertex="1">
          <mxGeometry x="515.8" y="197.74" width="214.52" height="10" as="geometry" />
        </mxCell>
        <mxCell id="NjJisONS0e7iSbClvMFq-12" value="" style="rounded=0;whiteSpace=wrap;html=1;fillColor=#6a00ff;fontColor=#ffffff;strokeColor=#3700CC;rotation=90;" parent="1" vertex="1">
          <mxGeometry x="510.64" y="782.26" width="224.84" height="10" as="geometry" />
        </mxCell>
        <mxCell id="NjJisONS0e7iSbClvMFq-13" value="" style="rounded=0;whiteSpace=wrap;html=1;fillColor=#6a00ff;fontColor=#ffffff;strokeColor=#3700CC;rotation=90;" parent="1" vertex="1">
          <mxGeometry x="750" y="490" width="239.04" height="10" as="geometry" />
        </mxCell>
        <mxCell id="NjJisONS0e7iSbClvMFq-14" value="" style="rounded=0;whiteSpace=wrap;html=1;fillColor=#6a00ff;fontColor=#ffffff;strokeColor=#3700CC;rotation=90;" parent="1" vertex="1">
          <mxGeometry x="-209.52" y="492.74" width="804.52" height="10" as="geometry" />
        </mxCell>
        <mxCell id="NjJisONS0e7iSbClvMFq-15" value="Button" style="rounded=0;whiteSpace=wrap;html=1;fillColor=light-dark(#FFFFFF,#FF4300);" parent="1" vertex="1">
          <mxGeometry x="200" y="470" width="49.36" height="30" as="geometry" />
        </mxCell>
        <mxCell id="NjJisONS0e7iSbClvMFq-16" value="" style="rounded=0;whiteSpace=wrap;html=1;fillColor=#d5e8d4;rotation=0;strokeColor=#82b366;" parent="1" vertex="1">
          <mxGeometry x="618.06" y="300.16" width="10" height="389.84" as="geometry" />
        </mxCell>
        <mxCell id="NjJisONS0e7iSbClvMFq-18" value="" style="ellipse;whiteSpace=wrap;html=1;aspect=fixed;fillColor=light-dark(#6A00FF,#FFF963);fontColor=#ffffff;strokeColor=light-dark(#3700CC,#FF0F0F);" parent="1" vertex="1">
          <mxGeometry x="762.1799999999998" y="180" width="40" height="40" as="geometry" />
        </mxCell>
        <mxCell id="NjJisONS0e7iSbClvMFq-20" value="" style="ellipse;whiteSpace=wrap;html=1;aspect=fixed;fillColor=light-dark(#6A00FF,#FFF963);fontColor=#ffffff;strokeColor=light-dark(#3700CC,#FF0F0F);" parent="1" vertex="1">
          <mxGeometry x="755.8199999999998" y="750" width="40" height="40" as="geometry" />
        </mxCell>
        <mxCell id="NjJisONS0e7iSbClvMFq-22" value="" style="ellipse;whiteSpace=wrap;html=1;aspect=fixed;fillColor=light-dark(#6A00FF,#FFF963);fontColor=#ffffff;strokeColor=light-dark(#3700CC,#FF0F0F);" parent="1" vertex="1">
          <mxGeometry x="1048.1399999999999" y="263.99" width="40" height="40" as="geometry" />
        </mxCell>
        <mxCell id="NjJisONS0e7iSbClvMFq-24" value="" style="ellipse;whiteSpace=wrap;html=1;aspect=fixed;fillColor=light-dark(#6A00FF,#FFF963);fontColor=#ffffff;strokeColor=light-dark(#3700CC,#FF0F0F);" parent="1" vertex="1">
          <mxGeometry x="1048.1399999999999" y="647.5" width="40" height="40" as="geometry" />
        </mxCell>
        <mxCell id="NjJisONS0e7iSbClvMFq-25" value="" style="ellipse;whiteSpace=wrap;html=1;aspect=fixed;fillColor=#60a917;fontColor=#ffffff;strokeColor=#2D7600;" parent="1" vertex="1">
          <mxGeometry x="1278.4" y="263.99" width="40" height="40" as="geometry" />
        </mxCell>
        <mxCell id="NjJisONS0e7iSbClvMFq-26" value="" style="ellipse;whiteSpace=wrap;html=1;aspect=fixed;fillColor=#60a917;fontColor=#ffffff;strokeColor=#2D7600;" parent="1" vertex="1">
          <mxGeometry x="1278.2400000000002" y="654.6800000000001" width="40" height="40" as="geometry" />
        </mxCell>
        <mxCell id="NjJisONS0e7iSbClvMFq-27" value="" style="ellipse;whiteSpace=wrap;html=1;aspect=fixed;fillColor=#60a917;fontColor=#ffffff;strokeColor=#2D7600;" parent="1" vertex="1">
          <mxGeometry x="1048.4" y="460" width="40" height="40" as="geometry" />
        </mxCell>
        <mxCell id="NjJisONS0e7iSbClvMFq-28" value="" style="ellipse;whiteSpace=wrap;html=1;aspect=fixed;fillColor=#60a917;fontColor=#ffffff;strokeColor=#2D7600;" parent="1" vertex="1">
          <mxGeometry x="1274.04" y="460" width="40" height="40" as="geometry" />
        </mxCell>
        <mxCell id="NjJisONS0e7iSbClvMFq-29" value="" style="ellipse;whiteSpace=wrap;html=1;aspect=fixed;fillColor=#60a917;fontColor=#ffffff;strokeColor=#2D7600;" parent="1" vertex="1">
          <mxGeometry x="1539.9999999999998" y="465" width="40" height="40" as="geometry" />
        </mxCell>
        <mxCell id="NjJisONS0e7iSbClvMFq-30" value="ENEMY 3" style="ellipse;whiteSpace=wrap;html=1;aspect=fixed;fillColor=#dae8fc;strokeColor=#6c8ebf;gradientColor=#7ea6e0;" parent="1" vertex="1">
          <mxGeometry x="345" y="437.5" width="95" height="95" as="geometry" />
        </mxCell>
        <mxCell id="NjJisONS0e7iSbClvMFq-31" value="" style="rounded=0;whiteSpace=wrap;html=1;fillColor=light-dark(#FFFFFF,#FF1807);" parent="1" vertex="1">
          <mxGeometry x="2319.68" y="380" width="10" height="240" as="geometry" />
        </mxCell>
        <mxCell id="NjJisONS0e7iSbClvMFq-32" value="" style="rounded=0;whiteSpace=wrap;html=1;fillColor=#6a00ff;fontColor=#ffffff;strokeColor=#3700CC;rotation=90;" parent="1" vertex="1">
          <mxGeometry x="2180.69" y="229.31" width="287.98" height="10" as="geometry" />
        </mxCell>
        <mxCell id="NjJisONS0e7iSbClvMFq-33" value="" style="rounded=0;whiteSpace=wrap;html=1;fillColor=#6a00ff;fontColor=#ffffff;strokeColor=#3700CC;rotation=90;" parent="1" vertex="1">
          <mxGeometry x="3152.37" y="492.91" width="243.24" height="10" as="geometry" />
        </mxCell>
        <mxCell id="NjJisONS0e7iSbClvMFq-35" value="" style="rounded=0;whiteSpace=wrap;html=1;fillColor=#6a00ff;fontColor=#ffffff;strokeColor=#3700CC;rotation=90;" parent="1" vertex="1">
          <mxGeometry x="2960" y="755.35" width="289.36" height="10" as="geometry" />
        </mxCell>
        <mxCell id="NjJisONS0e7iSbClvMFq-36" value="" style="rounded=0;whiteSpace=wrap;html=1;fillColor=#6a00ff;fontColor=#ffffff;strokeColor=#3700CC;rotation=90;" parent="1" vertex="1">
          <mxGeometry x="2960.69" y="224.66" width="287.98" height="10" as="geometry" />
        </mxCell>
        <mxCell id="NjJisONS0e7iSbClvMFq-38" value="" style="rounded=0;whiteSpace=wrap;html=1;fillColor=#6a00ff;fontColor=#ffffff;strokeColor=#3700CC;rotation=0;" parent="1" vertex="1">
          <mxGeometry x="3100" y="370" width="179.68" height="10" as="geometry" />
        </mxCell>
        <mxCell id="NjJisONS0e7iSbClvMFq-39" value="" style="rounded=0;whiteSpace=wrap;html=1;fillColor=#6a00ff;fontColor=#ffffff;strokeColor=#3700CC;rotation=0;" parent="1" vertex="1">
          <mxGeometry x="3100" y="610" width="179.68" height="10" as="geometry" />
        </mxCell>
        <mxCell id="NjJisONS0e7iSbClvMFq-40" value="" style="rounded=0;whiteSpace=wrap;html=1;fillColor=#d5e8d4;rotation=0;strokeColor=#82b366;" parent="1" vertex="1">
          <mxGeometry x="3099.68" y="380" width="10" height="230" as="geometry" />
        </mxCell>
        <mxCell id="NjJisONS0e7iSbClvMFq-41" value="ENEMY 3" style="ellipse;whiteSpace=wrap;html=1;aspect=fixed;fillColor=#dae8fc;strokeColor=#6c8ebf;gradientColor=#7ea6e0;" parent="1" vertex="1">
          <mxGeometry x="2953" y="152.5" width="95" height="95" as="geometry" />
        </mxCell>
        <mxCell id="NjJisONS0e7iSbClvMFq-42" value="ENEMY 3" style="ellipse;whiteSpace=wrap;html=1;aspect=fixed;fillColor=#dae8fc;strokeColor=#6c8ebf;gradientColor=#7ea6e0;" parent="1" vertex="1">
          <mxGeometry x="2953" y="750" width="95" height="95" as="geometry" />
        </mxCell>
        <mxCell id="NjJisONS0e7iSbClvMFq-44" value="" style="ellipse;whiteSpace=wrap;html=1;aspect=fixed;fillColor=#60a917;fontColor=#ffffff;strokeColor=#2D7600;" parent="1" vertex="1">
          <mxGeometry x="2819" y="370" width="40" height="40" as="geometry" />
        </mxCell>
        <mxCell id="NjJisONS0e7iSbClvMFq-45" value="" style="ellipse;whiteSpace=wrap;html=1;aspect=fixed;fillColor=#60a917;fontColor=#ffffff;strokeColor=#2D7600;" parent="1" vertex="1">
          <mxGeometry x="2819" y="600" width="40" height="40" as="geometry" />
        </mxCell>
        <mxCell id="NjJisONS0e7iSbClvMFq-46" value="" style="ellipse;whiteSpace=wrap;html=1;aspect=fixed;fillColor=#60a917;fontColor=#ffffff;strokeColor=#2D7600;" parent="1" vertex="1">
          <mxGeometry x="2739" y="480" width="40" height="40" as="geometry" />
        </mxCell>
        <mxCell id="NjJisONS0e7iSbClvMFq-47" value="" style="ellipse;whiteSpace=wrap;html=1;aspect=fixed;fillColor=light-dark(#6A00FF,#FFF963);fontColor=#ffffff;strokeColor=light-dark(#3700CC,#FF0F0F);" parent="1" vertex="1">
          <mxGeometry x="2959.6899999999996" y="350" width="40" height="40" as="geometry" />
        </mxCell>
        <mxCell id="NjJisONS0e7iSbClvMFq-48" value="" style="ellipse;whiteSpace=wrap;html=1;aspect=fixed;fillColor=light-dark(#6A00FF,#FFF963);fontColor=#ffffff;strokeColor=light-dark(#3700CC,#FF0F0F);" parent="1" vertex="1">
          <mxGeometry x="2959.6899999999996" y="625" width="40" height="40" as="geometry" />
        </mxCell>
        <mxCell id="NjJisONS0e7iSbClvMFq-50" value="" style="rounded=0;whiteSpace=wrap;html=1;fillColor=#6a00ff;fontColor=#ffffff;strokeColor=#3700CC;rotation=90;" parent="1" vertex="1">
          <mxGeometry x="2530" y="490" width="239.04" height="10" as="geometry" />
        </mxCell>
        <mxCell id="NjJisONS0e7iSbClvMFq-51" value="PLAYER" style="ellipse;whiteSpace=wrap;html=1;aspect=fixed;fillColor=#a20025;fontColor=#ffffff;strokeColor=#6F0000;" parent="1" vertex="1">
          <mxGeometry x="1930" y="455" width="80" height="80" as="geometry" />
        </mxCell>
        <mxCell id="NjJisONS0e7iSbClvMFq-52" value="EXIT" style="ellipse;whiteSpace=wrap;html=1;aspect=fixed;fillColor=#6a00ff;fontColor=#ffffff;strokeColor=#3700CC;" parent="1" vertex="1">
          <mxGeometry x="3149.84" y="455" width="80" height="80" as="geometry" />
        </mxCell>
        <mxCell id="NjJisONS0e7iSbClvMFq-53" value="" style="curved=1;endArrow=classic;html=1;rounded=0;entryX=1;entryY=0.5;entryDx=0;entryDy=0;" parent="1" target="NjJisONS0e7iSbClvMFq-15" edge="1">
          <mxGeometry width="50" height="50" relative="1" as="geometry">
            <mxPoint x="1990" y="500" as="sourcePoint" />
            <mxPoint x="710" y="570" as="targetPoint" />
            <Array as="points">
              <mxPoint x="2220" y="540" />
              <mxPoint x="2040" y="830" />
              <mxPoint x="1610" y="770" />
              <mxPoint x="1380" y="700" />
              <mxPoint x="1070" y="370" />
              <mxPoint x="790" y="320" />
              <mxPoint x="490" y="485" />
            </Array>
          </mxGeometry>
        </mxCell>
        <mxCell id="NjJisONS0e7iSbClvMFq-55" value="" style="curved=1;endArrow=classic;html=1;rounded=0;exitX=1;exitY=0.5;exitDx=0;exitDy=0;entryX=0;entryY=0.5;entryDx=0;entryDy=0;" parent="1" source="NjJisONS0e7iSbClvMFq-15" target="NjJisONS0e7iSbClvMFq-52" edge="1">
          <mxGeometry width="50" height="50" relative="1" as="geometry">
            <mxPoint x="239.9999999999999" y="507.25999999999976" as="sourcePoint" />
            <mxPoint x="3140.48000000005" y="517.2599999999998" as="targetPoint" />
            <Array as="points">
              <mxPoint x="330.64" y="482.26" />
              <mxPoint x="700" y="680" />
              <mxPoint x="1110" y="590" />
              <mxPoint x="1560" y="100" />
              <mxPoint x="2120" y="240" />
              <mxPoint x="2360" y="570" />
              <mxPoint x="2730" y="770" />
            </Array>
          </mxGeometry>
        </mxCell>
        <mxCell id="NjJisONS0e7iSbClvMFq-58" value="" style="edgeStyle=orthogonalEdgeStyle;rounded=0;orthogonalLoop=1;jettySize=auto;html=1;" parent="1" source="NjJisONS0e7iSbClvMFq-56" target="NjJisONS0e7iSbClvMFq-57" edge="1">
          <mxGeometry relative="1" as="geometry" />
        </mxCell>
        <mxCell id="NjJisONS0e7iSbClvMFq-56" value="Player collides with wall?" style="rhombus;whiteSpace=wrap;html=1;rounded=1;spacing=10;" parent="1" vertex="1">
          <mxGeometry y="1760" width="140" height="120" as="geometry" />
        </mxCell>
        <mxCell id="NjJisONS0e7iSbClvMFq-57" value="Prevent player to move that direction&amp;nbsp;" style="rounded=0;whiteSpace=wrap;html=1;" parent="1" vertex="1">
          <mxGeometry x="10" y="1920" width="120" height="60" as="geometry" />
        </mxCell>
        <mxCell id="AHHrEbp7xVRI3c2H2Wv2-5" value="" style="edgeStyle=none;curved=1;rounded=0;orthogonalLoop=1;jettySize=auto;html=1;fontSize=12;startSize=8;endSize=8;" edge="1" parent="1" source="AHHrEbp7xVRI3c2H2Wv2-1" target="AHHrEbp7xVRI3c2H2Wv2-4">
          <mxGeometry relative="1" as="geometry" />
        </mxCell>
        <mxCell id="AHHrEbp7xVRI3c2H2Wv2-1" value="Button Machanics" style="rounded=0;whiteSpace=wrap;html=1;" vertex="1" parent="1">
          <mxGeometry x="1298.96" y="1340" width="150" height="60" as="geometry" />
        </mxCell>
        <mxCell id="AHHrEbp7xVRI3c2H2Wv2-8" value="" style="edgeStyle=none;curved=1;rounded=0;orthogonalLoop=1;jettySize=auto;html=1;fontSize=12;startSize=8;endSize=8;" edge="1" parent="1" source="AHHrEbp7xVRI3c2H2Wv2-4" target="AHHrEbp7xVRI3c2H2Wv2-7">
          <mxGeometry relative="1" as="geometry" />
        </mxCell>
        <mxCell id="AHHrEbp7xVRI3c2H2Wv2-4" value="Buttons are stored in a list of pairs (one button, one door)" style="rounded=0;whiteSpace=wrap;html=1;" vertex="1" parent="1">
          <mxGeometry x="1293.48" y="1230" width="160.96" height="80" as="geometry" />
        </mxCell>
        <mxCell id="AHHrEbp7xVRI3c2H2Wv2-13" value="True" style="edgeStyle=none;curved=1;rounded=0;orthogonalLoop=1;jettySize=auto;html=1;fontSize=12;startSize=8;endSize=8;" edge="1" parent="1" source="AHHrEbp7xVRI3c2H2Wv2-7" target="AHHrEbp7xVRI3c2H2Wv2-12">
          <mxGeometry relative="1" as="geometry" />
        </mxCell>
        <mxCell id="AHHrEbp7xVRI3c2H2Wv2-7" value="Did a &amp;lt;Button&amp;gt;&lt;div&gt;get pressed&lt;/div&gt;" style="rhombus;whiteSpace=wrap;html=1;rounded=0;" vertex="1" parent="1">
          <mxGeometry x="1495.5600000000002" y="1220" width="150" height="100" as="geometry" />
        </mxCell>
        <mxCell id="AHHrEbp7xVRI3c2H2Wv2-15" value="False" style="edgeStyle=none;curved=1;rounded=0;orthogonalLoop=1;jettySize=auto;html=1;fontSize=12;startSize=8;endSize=8;" edge="1" parent="1" source="AHHrEbp7xVRI3c2H2Wv2-12" target="AHHrEbp7xVRI3c2H2Wv2-14">
          <mxGeometry relative="1" as="geometry" />
        </mxCell>
        <mxCell id="AHHrEbp7xVRI3c2H2Wv2-12" value="Was the button already pressed?" style="rhombus;whiteSpace=wrap;html=1;rounded=0;" vertex="1" parent="1">
          <mxGeometry x="1494.92" y="1350" width="150" height="100" as="geometry" />
        </mxCell>
        <mxCell id="AHHrEbp7xVRI3c2H2Wv2-14" value="Open corresponding door in level and note that this button was pressed." style="whiteSpace=wrap;html=1;rounded=0;" vertex="1" parent="1">
          <mxGeometry x="1510.5600000000002" y="1490" width="120" height="60" as="geometry" />
        </mxCell>
      </root>
    </mxGraphModel>
  </diagram>
</mxfile>
